<?xml version="1.0" encoding="UTF-8" standalone="no"?>
<!DOCTYPE svg PUBLIC "-//W3C//DTD SVG 1.1//EN"
 "http://www.w3.org/Graphics/SVG/1.1/DTD/svg11.dtd">
<!-- Generated by graphviz version 2.47.0 (20210316.0004)
 -->
<!-- Title: dependencies Pages: 1 -->
<svg width="504pt" height="211pt"
 viewBox="0.00 0.00 504.00 211.00" xmlns="http://www.w3.org/2000/svg" xmlns:xlink="http://www.w3.org/1999/xlink">
<g id="graph0" class="graph" transform="scale(1 1) rotate(0) translate(4 207)">
<title>dependencies</title>
<polygon fill="white" stroke="transparent" points="-4,4 -4,-207 500,-207 500,4 -4,4"/>
<text text-anchor="start" x="227.01" y="-42.4" font-family="Times-12" font-weight="bold" font-size="14.00">Legend</text>
<polygon fill="#ffffb3" stroke="transparent" points="14,-10 14,-30 34,-30 34,-10 14,-10"/>
<text text-anchor="start" x="37.63" y="-15.4" font-family="Times-12" font-size="14.00"> &#160;Declarations</text>
<polygon fill="#8dd3c7" stroke="transparent" points="127,-10 127,-30 147,-30 147,-10 127,-10"/>
<text text-anchor="start" x="150.73" y="-15.4" font-family="Times-12" font-size="14.00"> &#160;Module</text>
<polygon fill="#80b1d3" stroke="transparent" points="213,-10 213,-30 233,-30 233,-10 213,-10"/>
<text text-anchor="start" x="236.78" y="-15.4" font-family="Times-12" font-size="14.00"> &#160;Bootstrap</text>
<polygon fill="#fdb462" stroke="transparent" points="310,-10 310,-30 330,-30 330,-10 310,-10"/>
<text text-anchor="start" x="333.67" y="-15.4" font-family="Times-12" font-size="14.00"> &#160;Providers</text>
<polygon fill="#fb8072" stroke="transparent" points="406,-10 406,-30 426,-30 426,-10 406,-10"/>
<text text-anchor="start" x="429.73" y="-15.4" font-family="Times-12" font-size="14.00"> &#160;Exports</text>
<g id="clust1" class="cluster">
<title>cluster_CartePageModule</title>
<polygon fill="none" stroke="black" stroke-dasharray="1,5" points="102,-70 102,-195 394,-195 394,-70 102,-70"/>
</g>
<g id="clust2" class="cluster">
<title>cluster_CartePageModule_declarations</title>
<polygon fill="none" stroke="black" points="296,-78 296,-130 386,-130 386,-78 296,-78"/>
</g>
<g id="clust4" class="cluster">
<title>cluster_CartePageModule_imports</title>
<polygon fill="none" stroke="black" points="110,-78 110,-130 288,-130 288,-78 110,-78"/>
</g>
<!-- CartePage -->
<g id="node1" class="node">
<title>CartePage</title>
<polygon fill="#ffffb3" stroke="black" points="377.53,-122 304.47,-122 304.47,-86 377.53,-86 377.53,-122"/>
<text text-anchor="middle" x="341" y="-99.8" font-family="Times,serif" font-size="14.00">CartePage</text>
</g>
<!-- CartePageModule -->
<g id="node2" class="node">
<title>CartePageModule</title>
<polygon fill="#8dd3c7" stroke="black" points="321.58,-187 318.58,-191 297.58,-191 294.58,-187 204.42,-187 204.42,-151 321.58,-151 321.58,-187"/>
<text text-anchor="middle" x="263" y="-164.8" font-family="Times,serif" font-size="14.00">CartePageModule</text>
</g>
<!-- CartePage&#45;&gt;CartePageModule -->
<g id="edge1" class="edge">
<title>CartePage&#45;&gt;CartePageModule</title>
<path fill="none" stroke="black" d="M312.89,-122.11C312.89,-122.11 312.89,-140.99 312.89,-140.99"/>
<polygon fill="black" stroke="black" points="309.39,-140.99 312.89,-150.99 316.39,-140.99 309.39,-140.99"/>
</g>
<!-- CartePageRoutingModule -->
<g id="node3" class="node">
<title>CartePageRoutingModule</title>
<polygon fill="#8dd3c7" stroke="black" points="280.2,-122 277.2,-126 256.2,-126 253.2,-122 117.8,-122 117.8,-86 280.2,-86 280.2,-122"/>
<text text-anchor="middle" x="199" y="-99.8" font-family="Times,serif" font-size="14.00">CartePageRoutingModule</text>
</g>
<!-- CartePageRoutingModule&#45;&gt;CartePageModule -->
<g id="edge2" class="edge">
<title>CartePageRoutingModule&#45;&gt;CartePageModule</title>
<path fill="none" stroke="black" d="M242.28,-122.11C242.28,-122.11 242.28,-140.99 242.28,-140.99"/>
<polygon fill="black" stroke="black" points="238.78,-140.99 242.28,-150.99 245.78,-140.99 238.78,-140.99"/>
</g>
</g>
</svg>
