<?xml version="1.0" encoding="UTF-8" standalone="no"?>
<!DOCTYPE svg PUBLIC "-//W3C//DTD SVG 1.1//EN"
 "http://www.w3.org/Graphics/SVG/1.1/DTD/svg11.dtd">
<!-- Generated by graphviz version 2.47.0 (20210316.0004)
 -->
<!-- Title: dependencies Pages: 1 -->
<svg width="552pt" height="211pt"
 viewBox="0.00 0.00 552.00 211.00" xmlns="http://www.w3.org/2000/svg" xmlns:xlink="http://www.w3.org/1999/xlink">
<g id="graph0" class="graph" transform="scale(1 1) rotate(0) translate(4 207)">
<title>dependencies</title>
<polygon fill="white" stroke="transparent" points="-4,4 -4,-207 548,-207 548,4 -4,4"/>
<text text-anchor="start" x="251.01" y="-42.4" font-family="Times-12" font-weight="bold" font-size="14.00">Legend</text>
<polygon fill="#ffffb3" stroke="transparent" points="38,-10 38,-30 58,-30 58,-10 38,-10"/>
<text text-anchor="start" x="61.63" y="-15.4" font-family="Times-12" font-size="14.00"> &#160;Declarations</text>
<polygon fill="#8dd3c7" stroke="transparent" points="151,-10 151,-30 171,-30 171,-10 151,-10"/>
<text text-anchor="start" x="174.73" y="-15.4" font-family="Times-12" font-size="14.00"> &#160;Module</text>
<polygon fill="#80b1d3" stroke="transparent" points="237,-10 237,-30 257,-30 257,-10 237,-10"/>
<text text-anchor="start" x="260.78" y="-15.4" font-family="Times-12" font-size="14.00"> &#160;Bootstrap</text>
<polygon fill="#fdb462" stroke="transparent" points="334,-10 334,-30 354,-30 354,-10 334,-10"/>
<text text-anchor="start" x="357.67" y="-15.4" font-family="Times-12" font-size="14.00"> &#160;Providers</text>
<polygon fill="#fb8072" stroke="transparent" points="430,-10 430,-30 450,-30 450,-10 430,-10"/>
<text text-anchor="start" x="453.73" y="-15.4" font-family="Times-12" font-size="14.00"> &#160;Exports</text>
<g id="clust1" class="cluster">
<title>cluster_ReservationPageModule</title>
<polygon fill="none" stroke="black" stroke-dasharray="1,5" points="8,-70 8,-195 536,-195 536,-70 8,-70"/>
</g>
<g id="clust2" class="cluster">
<title>cluster_ReservationPageModule_declarations</title>
<polygon fill="none" stroke="black" points="402,-78 402,-130 528,-130 528,-78 402,-78"/>
</g>
<g id="clust4" class="cluster">
<title>cluster_ReservationPageModule_imports</title>
<polygon fill="none" stroke="black" points="16,-78 16,-130 394,-130 394,-78 16,-78"/>
</g>
<!-- ReservationPage -->
<g id="node1" class="node">
<title>ReservationPage</title>
<polygon fill="#ffffb3" stroke="black" points="520.08,-122 409.92,-122 409.92,-86 520.08,-86 520.08,-122"/>
<text text-anchor="middle" x="465" y="-99.8" font-family="Times,serif" font-size="14.00">ReservationPage</text>
</g>
<!-- ReservationPageModule -->
<g id="node2" class="node">
<title>ReservationPageModule</title>
<polygon fill="#8dd3c7" stroke="black" points="389.63,-187 386.63,-191 365.63,-191 362.63,-187 236.37,-187 236.37,-151 389.63,-151 389.63,-187"/>
<text text-anchor="middle" x="313" y="-164.8" font-family="Times,serif" font-size="14.00">ReservationPageModule</text>
</g>
<!-- ReservationPage&#45;&gt;ReservationPageModule -->
<g id="edge1" class="edge">
<title>ReservationPage&#45;&gt;ReservationPageModule</title>
<path fill="none" stroke="black" d="M465,-122.11C465,-141.34 465,-169 465,-169 465,-169 399.89,-169 399.89,-169"/>
<polygon fill="black" stroke="black" points="399.89,-165.5 389.89,-169 399.89,-172.5 399.89,-165.5"/>
</g>
<!-- ParticulierPageModule -->
<g id="node3" class="node">
<title>ParticulierPageModule</title>
<polygon fill="#8dd3c7" stroke="black" points="385.57,-122 382.57,-126 361.57,-126 358.57,-122 240.43,-122 240.43,-86 385.57,-86 385.57,-122"/>
<text text-anchor="middle" x="313" y="-99.8" font-family="Times,serif" font-size="14.00">ParticulierPageModule</text>
</g>
<!-- ParticulierPageModule&#45;&gt;ReservationPageModule -->
<g id="edge2" class="edge">
<title>ParticulierPageModule&#45;&gt;ReservationPageModule</title>
<path fill="none" stroke="black" d="M313,-122.11C313,-122.11 313,-140.99 313,-140.99"/>
<polygon fill="black" stroke="black" points="309.5,-140.99 313,-150.99 316.5,-140.99 309.5,-140.99"/>
</g>
<!-- ReservationPageRoutingModule -->
<g id="node4" class="node">
<title>ReservationPageRoutingModule</title>
<polygon fill="#8dd3c7" stroke="black" points="222.25,-122 219.25,-126 198.25,-126 195.25,-122 23.75,-122 23.75,-86 222.25,-86 222.25,-122"/>
<text text-anchor="middle" x="123" y="-99.8" font-family="Times,serif" font-size="14.00">ReservationPageRoutingModule</text>
</g>
<!-- ReservationPageRoutingModule&#45;&gt;ReservationPageModule -->
<g id="edge3" class="edge">
<title>ReservationPageRoutingModule&#45;&gt;ReservationPageModule</title>
<path fill="none" stroke="black" d="M123,-122.11C123,-141.34 123,-169 123,-169 123,-169 226.27,-169 226.27,-169"/>
<polygon fill="black" stroke="black" points="226.27,-172.5 236.27,-169 226.27,-165.5 226.27,-172.5"/>
</g>
</g>
</svg>
