<?xml version="1.0" encoding="UTF-8" standalone="no"?>
<!DOCTYPE svg PUBLIC "-//W3C//DTD SVG 1.1//EN"
 "http://www.w3.org/Graphics/SVG/1.1/DTD/svg11.dtd">
<!-- Generated by graphviz version 2.47.0 (20210316.0004)
 -->
<!-- Title: dependencies Pages: 1 -->
<svg width="504pt" height="211pt"
 viewBox="0.00 0.00 504.00 211.00" xmlns="http://www.w3.org/2000/svg" xmlns:xlink="http://www.w3.org/1999/xlink">
<g id="graph0" class="graph" transform="scale(1 1) rotate(0) translate(4 207)">
<title>dependencies</title>
<polygon fill="white" stroke="transparent" points="-4,4 -4,-207 500,-207 500,4 -4,4"/>
<text text-anchor="start" x="227.01" y="-42.4" font-family="Times-12" font-weight="bold" font-size="14.00">Legend</text>
<polygon fill="#ffffb3" stroke="transparent" points="14,-10 14,-30 34,-30 34,-10 14,-10"/>
<text text-anchor="start" x="37.63" y="-15.4" font-family="Times-12" font-size="14.00"> &#160;Declarations</text>
<polygon fill="#8dd3c7" stroke="transparent" points="127,-10 127,-30 147,-30 147,-10 127,-10"/>
<text text-anchor="start" x="150.73" y="-15.4" font-family="Times-12" font-size="14.00"> &#160;Module</text>
<polygon fill="#80b1d3" stroke="transparent" points="213,-10 213,-30 233,-30 233,-10 213,-10"/>
<text text-anchor="start" x="236.78" y="-15.4" font-family="Times-12" font-size="14.00"> &#160;Bootstrap</text>
<polygon fill="#fdb462" stroke="transparent" points="310,-10 310,-30 330,-30 330,-10 310,-10"/>
<text text-anchor="start" x="333.67" y="-15.4" font-family="Times-12" font-size="14.00"> &#160;Providers</text>
<polygon fill="#fb8072" stroke="transparent" points="406,-10 406,-30 426,-30 426,-10 406,-10"/>
<text text-anchor="start" x="429.73" y="-15.4" font-family="Times-12" font-size="14.00"> &#160;Exports</text>
<g id="clust1" class="cluster">
<title>cluster_GestionReservationPageModule</title>
<polygon fill="none" stroke="black" stroke-dasharray="1,5" points="22,-70 22,-195 474,-195 474,-70 22,-70"/>
</g>
<g id="clust2" class="cluster">
<title>cluster_GestionReservationPageModule_declarations</title>
<polygon fill="none" stroke="black" points="296,-78 296,-130 466,-130 466,-78 296,-78"/>
</g>
<g id="clust4" class="cluster">
<title>cluster_GestionReservationPageModule_imports</title>
<polygon fill="none" stroke="black" points="30,-78 30,-130 288,-130 288,-78 30,-78"/>
</g>
<!-- GestionReservationPage -->
<g id="node1" class="node">
<title>GestionReservationPage</title>
<polygon fill="#ffffb3" stroke="black" points="457.63,-122 304.37,-122 304.37,-86 457.63,-86 457.63,-122"/>
<text text-anchor="middle" x="381" y="-99.8" font-family="Times,serif" font-size="14.00">GestionReservationPage</text>
</g>
<!-- GestionReservationPageModule -->
<g id="node2" class="node">
<title>GestionReservationPageModule</title>
<polygon fill="#8dd3c7" stroke="black" points="361.68,-187 358.68,-191 337.68,-191 334.68,-187 164.32,-187 164.32,-151 361.68,-151 361.68,-187"/>
<text text-anchor="middle" x="263" y="-164.8" font-family="Times,serif" font-size="14.00">GestionReservationPageModule</text>
</g>
<!-- GestionReservationPage&#45;&gt;GestionReservationPageModule -->
<g id="edge1" class="edge">
<title>GestionReservationPage&#45;&gt;GestionReservationPageModule</title>
<path fill="none" stroke="black" d="M332.89,-122.11C332.89,-122.11 332.89,-140.99 332.89,-140.99"/>
<polygon fill="black" stroke="black" points="329.39,-140.99 332.89,-150.99 336.39,-140.99 329.39,-140.99"/>
</g>
<!-- GestionReservationPageRoutingModule -->
<g id="node3" class="node">
<title>GestionReservationPageRoutingModule</title>
<polygon fill="#8dd3c7" stroke="black" points="280.29,-122 277.29,-126 256.29,-126 253.29,-122 37.71,-122 37.71,-86 280.29,-86 280.29,-122"/>
<text text-anchor="middle" x="159" y="-99.8" font-family="Times,serif" font-size="14.00">GestionReservationPageRoutingModule</text>
</g>
<!-- GestionReservationPageRoutingModule&#45;&gt;GestionReservationPageModule -->
<g id="edge2" class="edge">
<title>GestionReservationPageRoutingModule&#45;&gt;GestionReservationPageModule</title>
<path fill="none" stroke="black" d="M222.28,-122.11C222.28,-122.11 222.28,-140.99 222.28,-140.99"/>
<polygon fill="black" stroke="black" points="218.78,-140.99 222.28,-150.99 225.78,-140.99 218.78,-140.99"/>
</g>
</g>
</svg>
