<?xml version="1.0" encoding="UTF-8" standalone="no"?>
<!DOCTYPE svg PUBLIC "-//W3C//DTD SVG 1.1//EN"
 "http://www.w3.org/Graphics/SVG/1.1/DTD/svg11.dtd">
<!-- Generated by graphviz version 2.47.0 (20210316.0004)
 -->
<!-- Title: dependencies Pages: 1 -->
<svg width="504pt" height="284pt"
 viewBox="0.00 0.00 504.00 284.00" xmlns="http://www.w3.org/2000/svg" xmlns:xlink="http://www.w3.org/1999/xlink">
<g id="graph0" class="graph" transform="scale(1 1) rotate(0) translate(4 280)">
<title>dependencies</title>
<polygon fill="white" stroke="transparent" points="-4,4 -4,-280 500,-280 500,4 -4,4"/>
<text text-anchor="start" x="227.01" y="-42.4" font-family="Times-12" font-weight="bold" font-size="14.00">Legend</text>
<polygon fill="#ffffb3" stroke="transparent" points="14,-10 14,-30 34,-30 34,-10 14,-10"/>
<text text-anchor="start" x="37.63" y="-15.4" font-family="Times-12" font-size="14.00"> &#160;Declarations</text>
<polygon fill="#8dd3c7" stroke="transparent" points="127,-10 127,-30 147,-30 147,-10 127,-10"/>
<text text-anchor="start" x="150.73" y="-15.4" font-family="Times-12" font-size="14.00"> &#160;Module</text>
<polygon fill="#80b1d3" stroke="transparent" points="213,-10 213,-30 233,-30 233,-10 213,-10"/>
<text text-anchor="start" x="236.78" y="-15.4" font-family="Times-12" font-size="14.00"> &#160;Bootstrap</text>
<polygon fill="#fdb462" stroke="transparent" points="310,-10 310,-30 330,-30 330,-10 310,-10"/>
<text text-anchor="start" x="333.67" y="-15.4" font-family="Times-12" font-size="14.00"> &#160;Providers</text>
<polygon fill="#fb8072" stroke="transparent" points="406,-10 406,-30 426,-30 426,-10 406,-10"/>
<text text-anchor="start" x="429.73" y="-15.4" font-family="Times-12" font-size="14.00"> &#160;Exports</text>
<g id="clust1" class="cluster">
<title>cluster_ParticulierPageModule</title>
<polygon fill="none" stroke="black" stroke-dasharray="1,5" points="74,-70 74,-268 422,-268 422,-70 74,-70"/>
</g>
<g id="clust4" class="cluster">
<title>cluster_ParticulierPageModule_imports</title>
<polygon fill="none" stroke="black" points="208,-78 208,-130 414,-130 414,-78 208,-78"/>
</g>
<g id="clust5" class="cluster">
<title>cluster_ParticulierPageModule_exports</title>
<polygon fill="none" stroke="black" points="172,-208 172,-260 294,-260 294,-208 172,-208"/>
</g>
<g id="clust2" class="cluster">
<title>cluster_ParticulierPageModule_declarations</title>
<polygon fill="none" stroke="black" points="82,-78 82,-130 200,-130 200,-78 82,-78"/>
</g>
<!-- ParticulierPage -->
<g id="node1" class="node">
<title>ParticulierPage</title>
<polygon fill="#ffffb3" stroke="black" points="191.52,-122 90.48,-122 90.48,-86 191.52,-86 191.52,-122"/>
<text text-anchor="middle" x="141" y="-99.8" font-family="Times,serif" font-size="14.00">ParticulierPage</text>
</g>
<!-- ParticulierPageModule -->
<g id="node2" class="node">
<title>ParticulierPageModule</title>
<polygon fill="#8dd3c7" stroke="black" points="305.57,-187 302.57,-191 281.57,-191 278.57,-187 160.43,-187 160.43,-151 305.57,-151 305.57,-187"/>
<text text-anchor="middle" x="233" y="-164.8" font-family="Times,serif" font-size="14.00">ParticulierPageModule</text>
</g>
<!-- ParticulierPage&#45;&gt;ParticulierPageModule -->
<g id="edge1" class="edge">
<title>ParticulierPage&#45;&gt;ParticulierPageModule</title>
<path fill="none" stroke="black" d="M176.11,-122.11C176.11,-122.11 176.11,-140.99 176.11,-140.99"/>
<polygon fill="black" stroke="black" points="172.61,-140.99 176.11,-150.99 179.61,-140.99 172.61,-140.99"/>
</g>
<!-- ParticulierPage  -->
<g id="node4" class="node">
<title>ParticulierPage </title>
<polygon fill="#fb8072" stroke="black" points="285.52,-252 180.48,-252 180.48,-216 285.52,-216 285.52,-252"/>
<text text-anchor="middle" x="233" y="-229.8" font-family="Times,serif" font-size="14.00">ParticulierPage </text>
</g>
<!-- ParticulierPageModule&#45;&gt;ParticulierPage  -->
<g id="edge3" class="edge">
<title>ParticulierPageModule&#45;&gt;ParticulierPage </title>
<path fill="none" stroke="black" stroke-dasharray="5,2" d="M233,-187.11C233,-187.11 233,-205.99 233,-205.99"/>
<polygon fill="black" stroke="black" points="229.5,-205.99 233,-215.99 236.5,-205.99 229.5,-205.99"/>
</g>
<!-- ParticulierPageRoutingModule -->
<g id="node3" class="node">
<title>ParticulierPageRoutingModule</title>
<polygon fill="#8dd3c7" stroke="black" points="406.19,-122 403.19,-126 382.19,-126 379.19,-122 215.81,-122 215.81,-86 406.19,-86 406.19,-122"/>
<text text-anchor="middle" x="311" y="-99.8" font-family="Times,serif" font-size="14.00">ParticulierPageRoutingModule</text>
</g>
<!-- ParticulierPageRoutingModule&#45;&gt;ParticulierPageModule -->
<g id="edge2" class="edge">
<title>ParticulierPageRoutingModule&#45;&gt;ParticulierPageModule</title>
<path fill="none" stroke="black" d="M260.72,-122.11C260.72,-122.11 260.72,-140.99 260.72,-140.99"/>
<polygon fill="black" stroke="black" points="257.22,-140.99 260.72,-150.99 264.22,-140.99 257.22,-140.99"/>
</g>
</g>
</svg>
