<?xml version="1.0" encoding="UTF-8" standalone="no"?>
<!DOCTYPE svg PUBLIC "-//W3C//DTD SVG 1.1//EN"
 "http://www.w3.org/Graphics/SVG/1.1/DTD/svg11.dtd">
<!-- Generated by graphviz version 2.47.0 (20210316.0004)
 -->
<!-- Title: dependencies Pages: 1 -->
<svg width="504pt" height="211pt"
 viewBox="0.00 0.00 504.00 211.00" xmlns="http://www.w3.org/2000/svg" xmlns:xlink="http://www.w3.org/1999/xlink">
<g id="graph0" class="graph" transform="scale(1 1) rotate(0) translate(4 207)">
<title>dependencies</title>
<polygon fill="white" stroke="transparent" points="-4,4 -4,-207 500,-207 500,4 -4,4"/>
<text text-anchor="start" x="227.01" y="-42.4" font-family="Times-12" font-weight="bold" font-size="14.00">Legend</text>
<polygon fill="#ffffb3" stroke="transparent" points="14,-10 14,-30 34,-30 34,-10 14,-10"/>
<text text-anchor="start" x="37.63" y="-15.4" font-family="Times-12" font-size="14.00"> &#160;Declarations</text>
<polygon fill="#8dd3c7" stroke="transparent" points="127,-10 127,-30 147,-30 147,-10 127,-10"/>
<text text-anchor="start" x="150.73" y="-15.4" font-family="Times-12" font-size="14.00"> &#160;Module</text>
<polygon fill="#80b1d3" stroke="transparent" points="213,-10 213,-30 233,-30 233,-10 213,-10"/>
<text text-anchor="start" x="236.78" y="-15.4" font-family="Times-12" font-size="14.00"> &#160;Bootstrap</text>
<polygon fill="#fdb462" stroke="transparent" points="310,-10 310,-30 330,-30 330,-10 310,-10"/>
<text text-anchor="start" x="333.67" y="-15.4" font-family="Times-12" font-size="14.00"> &#160;Providers</text>
<polygon fill="#fb8072" stroke="transparent" points="406,-10 406,-30 426,-30 426,-10 406,-10"/>
<text text-anchor="start" x="429.73" y="-15.4" font-family="Times-12" font-size="14.00"> &#160;Exports</text>
<g id="clust1" class="cluster">
<title>cluster_ParametresPageModule</title>
<polygon fill="none" stroke="black" stroke-dasharray="1,5" points="70,-70 70,-195 426,-195 426,-70 70,-70"/>
</g>
<g id="clust4" class="cluster">
<title>cluster_ParametresPageModule_imports</title>
<polygon fill="none" stroke="black" points="208,-78 208,-130 418,-130 418,-78 208,-78"/>
</g>
<g id="clust2" class="cluster">
<title>cluster_ParametresPageModule_declarations</title>
<polygon fill="none" stroke="black" points="78,-78 78,-130 200,-130 200,-78 78,-78"/>
</g>
<!-- ParametresPage -->
<g id="node1" class="node">
<title>ParametresPage</title>
<polygon fill="#ffffb3" stroke="black" points="191.9,-122 86.1,-122 86.1,-86 191.9,-86 191.9,-122"/>
<text text-anchor="middle" x="139" y="-99.8" font-family="Times,serif" font-size="14.00">ParametresPage</text>
</g>
<!-- ParametresPageModule -->
<g id="node2" class="node">
<title>ParametresPageModule</title>
<polygon fill="#8dd3c7" stroke="black" points="306.45,-187 303.45,-191 282.45,-191 279.45,-187 157.55,-187 157.55,-151 306.45,-151 306.45,-187"/>
<text text-anchor="middle" x="232" y="-164.8" font-family="Times,serif" font-size="14.00">ParametresPageModule</text>
</g>
<!-- ParametresPage&#45;&gt;ParametresPageModule -->
<g id="edge1" class="edge">
<title>ParametresPage&#45;&gt;ParametresPageModule</title>
<path fill="none" stroke="black" d="M174.61,-122.11C174.61,-122.11 174.61,-140.99 174.61,-140.99"/>
<polygon fill="black" stroke="black" points="171.11,-140.99 174.61,-150.99 178.11,-140.99 171.11,-140.99"/>
</g>
<!-- ParametresPageRoutingModule -->
<g id="node3" class="node">
<title>ParametresPageRoutingModule</title>
<polygon fill="#8dd3c7" stroke="black" points="410.07,-122 407.07,-126 386.07,-126 383.07,-122 215.93,-122 215.93,-86 410.07,-86 410.07,-122"/>
<text text-anchor="middle" x="313" y="-99.8" font-family="Times,serif" font-size="14.00">ParametresPageRoutingModule</text>
</g>
<!-- ParametresPageRoutingModule&#45;&gt;ParametresPageModule -->
<g id="edge2" class="edge">
<title>ParametresPageRoutingModule&#45;&gt;ParametresPageModule</title>
<path fill="none" stroke="black" d="M261.22,-122.11C261.22,-122.11 261.22,-140.99 261.22,-140.99"/>
<polygon fill="black" stroke="black" points="257.72,-140.99 261.22,-150.99 264.72,-140.99 257.72,-140.99"/>
</g>
</g>
</svg>
