<?xml version="1.0" encoding="UTF-8" standalone="no"?>
<!DOCTYPE svg PUBLIC "-//W3C//DTD SVG 1.1//EN"
 "http://www.w3.org/Graphics/SVG/1.1/DTD/svg11.dtd">
<!-- Generated by graphviz version 2.47.0 (20210316.0004)
 -->
<!-- Title: dependencies Pages: 1 -->
<svg width="504pt" height="211pt"
 viewBox="0.00 0.00 504.00 211.00" xmlns="http://www.w3.org/2000/svg" xmlns:xlink="http://www.w3.org/1999/xlink">
<g id="graph0" class="graph" transform="scale(1 1) rotate(0) translate(4 207)">
<title>dependencies</title>
<polygon fill="white" stroke="transparent" points="-4,4 -4,-207 500,-207 500,4 -4,4"/>
<text text-anchor="start" x="227.01" y="-42.4" font-family="Times-12" font-weight="bold" font-size="14.00">Legend</text>
<polygon fill="#ffffb3" stroke="transparent" points="14,-10 14,-30 34,-30 34,-10 14,-10"/>
<text text-anchor="start" x="37.63" y="-15.4" font-family="Times-12" font-size="14.00"> &#160;Declarations</text>
<polygon fill="#8dd3c7" stroke="transparent" points="127,-10 127,-30 147,-30 147,-10 127,-10"/>
<text text-anchor="start" x="150.73" y="-15.4" font-family="Times-12" font-size="14.00"> &#160;Module</text>
<polygon fill="#80b1d3" stroke="transparent" points="213,-10 213,-30 233,-30 233,-10 213,-10"/>
<text text-anchor="start" x="236.78" y="-15.4" font-family="Times-12" font-size="14.00"> &#160;Bootstrap</text>
<polygon fill="#fdb462" stroke="transparent" points="310,-10 310,-30 330,-30 330,-10 310,-10"/>
<text text-anchor="start" x="333.67" y="-15.4" font-family="Times-12" font-size="14.00"> &#160;Providers</text>
<polygon fill="#fb8072" stroke="transparent" points="406,-10 406,-30 426,-30 426,-10 406,-10"/>
<text text-anchor="start" x="429.73" y="-15.4" font-family="Times-12" font-size="14.00"> &#160;Exports</text>
<g id="clust1" class="cluster">
<title>cluster_InscriptionPageModule</title>
<polygon fill="none" stroke="black" stroke-dasharray="1,5" points="72,-70 72,-195 424,-195 424,-70 72,-70"/>
</g>
<g id="clust2" class="cluster">
<title>cluster_InscriptionPageModule_declarations</title>
<polygon fill="none" stroke="black" points="296,-78 296,-130 416,-130 416,-78 296,-78"/>
</g>
<g id="clust4" class="cluster">
<title>cluster_InscriptionPageModule_imports</title>
<polygon fill="none" stroke="black" points="80,-78 80,-130 288,-130 288,-78 80,-78"/>
</g>
<!-- InscriptionPage -->
<g id="node1" class="node">
<title>InscriptionPage</title>
<polygon fill="#ffffb3" stroke="black" points="407.86,-122 304.14,-122 304.14,-86 407.86,-86 407.86,-122"/>
<text text-anchor="middle" x="356" y="-99.8" font-family="Times,serif" font-size="14.00">InscriptionPage</text>
</g>
<!-- InscriptionPageModule -->
<g id="node2" class="node">
<title>InscriptionPageModule</title>
<polygon fill="#8dd3c7" stroke="black" points="336.91,-187 333.91,-191 312.91,-191 309.91,-187 189.09,-187 189.09,-151 336.91,-151 336.91,-187"/>
<text text-anchor="middle" x="263" y="-164.8" font-family="Times,serif" font-size="14.00">InscriptionPageModule</text>
</g>
<!-- InscriptionPage&#45;&gt;InscriptionPageModule -->
<g id="edge1" class="edge">
<title>InscriptionPage&#45;&gt;InscriptionPageModule</title>
<path fill="none" stroke="black" d="M320.39,-122.11C320.39,-122.11 320.39,-140.99 320.39,-140.99"/>
<polygon fill="black" stroke="black" points="316.89,-140.99 320.39,-150.99 323.89,-140.99 316.89,-140.99"/>
</g>
<!-- InscriptionPageRoutingModule -->
<g id="node3" class="node">
<title>InscriptionPageRoutingModule</title>
<polygon fill="#8dd3c7" stroke="black" points="280.03,-122 277.03,-126 256.03,-126 253.03,-122 87.97,-122 87.97,-86 280.03,-86 280.03,-122"/>
<text text-anchor="middle" x="184" y="-99.8" font-family="Times,serif" font-size="14.00">InscriptionPageRoutingModule</text>
</g>
<!-- InscriptionPageRoutingModule&#45;&gt;InscriptionPageModule -->
<g id="edge2" class="edge">
<title>InscriptionPageRoutingModule&#45;&gt;InscriptionPageModule</title>
<path fill="none" stroke="black" d="M234.78,-122.11C234.78,-122.11 234.78,-140.99 234.78,-140.99"/>
<polygon fill="black" stroke="black" points="231.28,-140.99 234.78,-150.99 238.28,-140.99 231.28,-140.99"/>
</g>
</g>
</svg>
