<?xml version="1.0" encoding="UTF-8" standalone="no"?>
<!DOCTYPE svg PUBLIC "-//W3C//DTD SVG 1.1//EN"
 "http://www.w3.org/Graphics/SVG/1.1/DTD/svg11.dtd">
<!-- Generated by graphviz version 2.47.0 (20210316.0004)
 -->
<!-- Title: dependencies Pages: 1 -->
<svg width="504pt" height="211pt"
 viewBox="0.00 0.00 504.00 211.00" xmlns="http://www.w3.org/2000/svg" xmlns:xlink="http://www.w3.org/1999/xlink">
<g id="graph0" class="graph" transform="scale(1 1) rotate(0) translate(4 207)">
<title>dependencies</title>
<polygon fill="white" stroke="transparent" points="-4,4 -4,-207 500,-207 500,4 -4,4"/>
<text text-anchor="start" x="227.01" y="-42.4" font-family="Times-12" font-weight="bold" font-size="14.00">Legend</text>
<polygon fill="#ffffb3" stroke="transparent" points="14,-10 14,-30 34,-30 34,-10 14,-10"/>
<text text-anchor="start" x="37.63" y="-15.4" font-family="Times-12" font-size="14.00"> &#160;Declarations</text>
<polygon fill="#8dd3c7" stroke="transparent" points="127,-10 127,-30 147,-30 147,-10 127,-10"/>
<text text-anchor="start" x="150.73" y="-15.4" font-family="Times-12" font-size="14.00"> &#160;Module</text>
<polygon fill="#80b1d3" stroke="transparent" points="213,-10 213,-30 233,-30 233,-10 213,-10"/>
<text text-anchor="start" x="236.78" y="-15.4" font-family="Times-12" font-size="14.00"> &#160;Bootstrap</text>
<polygon fill="#fdb462" stroke="transparent" points="310,-10 310,-30 330,-30 330,-10 310,-10"/>
<text text-anchor="start" x="333.67" y="-15.4" font-family="Times-12" font-size="14.00"> &#160;Providers</text>
<polygon fill="#fb8072" stroke="transparent" points="406,-10 406,-30 426,-30 426,-10 406,-10"/>
<text text-anchor="start" x="429.73" y="-15.4" font-family="Times-12" font-size="14.00"> &#160;Exports</text>
<g id="clust1" class="cluster">
<title>cluster_HistoriquePageModule</title>
<polygon fill="none" stroke="black" stroke-dasharray="1,5" points="74,-70 74,-195 422,-195 422,-70 74,-70"/>
</g>
<g id="clust4" class="cluster">
<title>cluster_HistoriquePageModule_imports</title>
<polygon fill="none" stroke="black" points="208,-78 208,-130 414,-130 414,-78 208,-78"/>
</g>
<g id="clust2" class="cluster">
<title>cluster_HistoriquePageModule_declarations</title>
<polygon fill="none" stroke="black" points="82,-78 82,-130 200,-130 200,-78 82,-78"/>
</g>
<!-- HistoriquePage -->
<g id="node1" class="node">
<title>HistoriquePage</title>
<polygon fill="#ffffb3" stroke="black" points="192.31,-122 89.69,-122 89.69,-86 192.31,-86 192.31,-122"/>
<text text-anchor="middle" x="141" y="-99.8" font-family="Times,serif" font-size="14.00">HistoriquePage</text>
</g>
<!-- HistoriquePageModule -->
<g id="node2" class="node">
<title>HistoriquePageModule</title>
<polygon fill="#8dd3c7" stroke="black" points="305.86,-187 302.86,-191 281.86,-191 278.86,-187 160.14,-187 160.14,-151 305.86,-151 305.86,-187"/>
<text text-anchor="middle" x="233" y="-164.8" font-family="Times,serif" font-size="14.00">HistoriquePageModule</text>
</g>
<!-- HistoriquePage&#45;&gt;HistoriquePageModule -->
<g id="edge1" class="edge">
<title>HistoriquePage&#45;&gt;HistoriquePageModule</title>
<path fill="none" stroke="black" d="M176.11,-122.11C176.11,-122.11 176.11,-140.99 176.11,-140.99"/>
<polygon fill="black" stroke="black" points="172.61,-140.99 176.11,-150.99 179.61,-140.99 172.61,-140.99"/>
</g>
<!-- HistoriquePageRoutingModule -->
<g id="node3" class="node">
<title>HistoriquePageRoutingModule</title>
<polygon fill="#8dd3c7" stroke="black" points="406.48,-122 403.48,-126 382.48,-126 379.48,-122 215.52,-122 215.52,-86 406.48,-86 406.48,-122"/>
<text text-anchor="middle" x="311" y="-99.8" font-family="Times,serif" font-size="14.00">HistoriquePageRoutingModule</text>
</g>
<!-- HistoriquePageRoutingModule&#45;&gt;HistoriquePageModule -->
<g id="edge2" class="edge">
<title>HistoriquePageRoutingModule&#45;&gt;HistoriquePageModule</title>
<path fill="none" stroke="black" d="M260.72,-122.11C260.72,-122.11 260.72,-140.99 260.72,-140.99"/>
<polygon fill="black" stroke="black" points="257.22,-140.99 260.72,-150.99 264.22,-140.99 257.22,-140.99"/>
</g>
</g>
</svg>
