<?xml version="1.0" encoding="UTF-8" standalone="no"?>
<!DOCTYPE svg PUBLIC "-//W3C//DTD SVG 1.1//EN"
 "http://www.w3.org/Graphics/SVG/1.1/DTD/svg11.dtd">
<!-- Generated by graphviz version 2.47.0 (20210316.0004)
 -->
<!-- Title: dependencies Pages: 1 -->
<svg width="4570pt" height="287pt"
 viewBox="0.00 0.00 4570.00 287.00" xmlns="http://www.w3.org/2000/svg" xmlns:xlink="http://www.w3.org/1999/xlink">
<g id="graph0" class="graph" transform="scale(1 1) rotate(0) translate(4 283)">
<title>dependencies</title>
<polygon fill="white" stroke="transparent" points="-4,4 -4,-283 4566,-283 4566,4 -4,4"/>
<text text-anchor="start" x="2260.01" y="-42.4" font-family="Times-12" font-weight="bold" font-size="14.00">Legend</text>
<polygon fill="#ffffb3" stroke="transparent" points="2047,-10 2047,-30 2067,-30 2067,-10 2047,-10"/>
<text text-anchor="start" x="2070.63" y="-15.4" font-family="Times-12" font-size="14.00"> &#160;Declarations</text>
<polygon fill="#8dd3c7" stroke="transparent" points="2160,-10 2160,-30 2180,-30 2180,-10 2160,-10"/>
<text text-anchor="start" x="2183.73" y="-15.4" font-family="Times-12" font-size="14.00"> &#160;Module</text>
<polygon fill="#80b1d3" stroke="transparent" points="2246,-10 2246,-30 2266,-30 2266,-10 2246,-10"/>
<text text-anchor="start" x="2269.78" y="-15.4" font-family="Times-12" font-size="14.00"> &#160;Bootstrap</text>
<polygon fill="#fdb462" stroke="transparent" points="2343,-10 2343,-30 2363,-30 2363,-10 2343,-10"/>
<text text-anchor="start" x="2366.67" y="-15.4" font-family="Times-12" font-size="14.00"> &#160;Providers</text>
<polygon fill="#fb8072" stroke="transparent" points="2439,-10 2439,-30 2459,-30 2459,-10 2439,-10"/>
<text text-anchor="start" x="2462.73" y="-15.4" font-family="Times-12" font-size="14.00"> &#160;Exports</text>
<g id="clust1" class="cluster">
<title>cluster_AmbulancePageModule</title>
<polygon fill="none" stroke="black" stroke-dasharray="1,5" points="8,-70 8,-198 368,-198 368,-70 8,-70"/>
</g>
<g id="clust2" class="cluster">
<title>cluster_AmbulancePageModule_declarations</title>
<polygon fill="none" stroke="black" points="236,-78 236,-130 360,-130 360,-78 236,-78"/>
</g>
<g id="clust4" class="cluster">
<title>cluster_AmbulancePageModule_imports</title>
<polygon fill="none" stroke="black" points="16,-78 16,-130 228,-130 228,-78 16,-78"/>
</g>
<g id="clust14" class="cluster">
<title>cluster_AppModule</title>
<polygon fill="none" stroke="black" stroke-dasharray="1,5" points="376,-70 376,-271 816,-271 816,-70 376,-70"/>
</g>
<g id="clust15" class="cluster">
<title>cluster_AppModule_declarations</title>
<polygon fill="none" stroke="black" points="686,-78 686,-130 808,-130 808,-78 686,-78"/>
</g>
<g id="clust17" class="cluster">
<title>cluster_AppModule_imports</title>
<polygon fill="none" stroke="black" points="534,-78 534,-130 678,-130 678,-78 534,-78"/>
</g>
<g id="clust19" class="cluster">
<title>cluster_AppModule_bootstrap</title>
<polygon fill="none" stroke="black" points="544,-211 544,-263 668,-263 668,-211 544,-211"/>
</g>
<g id="clust20" class="cluster">
<title>cluster_AppModule_providers</title>
<polygon fill="none" stroke="black" points="384,-78 384,-130 526,-130 526,-78 384,-78"/>
</g>
<g id="clust27" class="cluster">
<title>cluster_CartePageModule</title>
<polygon fill="none" stroke="black" stroke-dasharray="1,5" points="824,-70 824,-198 1116,-198 1116,-70 824,-70"/>
</g>
<g id="clust28" class="cluster">
<title>cluster_CartePageModule_declarations</title>
<polygon fill="none" stroke="black" points="1018,-78 1018,-130 1108,-130 1108,-78 1018,-78"/>
</g>
<g id="clust30" class="cluster">
<title>cluster_CartePageModule_imports</title>
<polygon fill="none" stroke="black" points="832,-78 832,-130 1010,-130 1010,-78 832,-78"/>
</g>
<g id="clust40" class="cluster">
<title>cluster_GestionReservationPageModule</title>
<polygon fill="none" stroke="black" stroke-dasharray="1,5" points="1124,-70 1124,-198 1576,-198 1576,-70 1124,-70"/>
</g>
<g id="clust41" class="cluster">
<title>cluster_GestionReservationPageModule_declarations</title>
<polygon fill="none" stroke="black" points="1398,-78 1398,-130 1568,-130 1568,-78 1398,-78"/>
</g>
<g id="clust43" class="cluster">
<title>cluster_GestionReservationPageModule_imports</title>
<polygon fill="none" stroke="black" points="1132,-78 1132,-130 1390,-130 1390,-78 1132,-78"/>
</g>
<g id="clust53" class="cluster">
<title>cluster_HistoAmbulancePageModule</title>
<polygon fill="none" stroke="black" stroke-dasharray="1,5" points="1584,-70 1584,-198 2004,-198 2004,-70 1584,-70"/>
</g>
<g id="clust54" class="cluster">
<title>cluster_HistoAmbulancePageModule_declarations</title>
<polygon fill="none" stroke="black" points="1842,-78 1842,-130 1996,-130 1996,-78 1842,-78"/>
</g>
<g id="clust56" class="cluster">
<title>cluster_HistoAmbulancePageModule_imports</title>
<polygon fill="none" stroke="black" points="1592,-78 1592,-130 1834,-130 1834,-78 1592,-78"/>
</g>
<g id="clust66" class="cluster">
<title>cluster_HistoriquePageModule</title>
<polygon fill="none" stroke="black" stroke-dasharray="1,5" points="2012,-70 2012,-198 2360,-198 2360,-70 2012,-70"/>
</g>
<g id="clust67" class="cluster">
<title>cluster_HistoriquePageModule_declarations</title>
<polygon fill="none" stroke="black" points="2234,-78 2234,-130 2352,-130 2352,-78 2234,-78"/>
</g>
<g id="clust69" class="cluster">
<title>cluster_HistoriquePageModule_imports</title>
<polygon fill="none" stroke="black" points="2020,-78 2020,-130 2226,-130 2226,-78 2020,-78"/>
</g>
<g id="clust79" class="cluster">
<title>cluster_HomePageModule</title>
<polygon fill="none" stroke="black" stroke-dasharray="1,5" points="2368,-70 2368,-198 2668,-198 2668,-70 2368,-70"/>
</g>
<g id="clust80" class="cluster">
<title>cluster_HomePageModule_declarations</title>
<polygon fill="none" stroke="black" points="2566,-78 2566,-130 2660,-130 2660,-78 2566,-78"/>
</g>
<g id="clust82" class="cluster">
<title>cluster_HomePageModule_imports</title>
<polygon fill="none" stroke="black" points="2376,-78 2376,-130 2558,-130 2558,-78 2376,-78"/>
</g>
<g id="clust92" class="cluster">
<title>cluster_InscriptionPageModule</title>
<polygon fill="none" stroke="black" stroke-dasharray="1,5" points="2676,-70 2676,-198 3028,-198 3028,-70 2676,-70"/>
</g>
<g id="clust93" class="cluster">
<title>cluster_InscriptionPageModule_declarations</title>
<polygon fill="none" stroke="black" points="2900,-78 2900,-130 3020,-130 3020,-78 2900,-78"/>
</g>
<g id="clust95" class="cluster">
<title>cluster_InscriptionPageModule_imports</title>
<polygon fill="none" stroke="black" points="2684,-78 2684,-130 2892,-130 2892,-78 2684,-78"/>
</g>
<g id="clust105" class="cluster">
<title>cluster_ParametresAmbuPageModule</title>
<polygon fill="none" stroke="black" stroke-dasharray="1,5" points="3036,-70 3036,-198 3462,-198 3462,-70 3036,-70"/>
</g>
<g id="clust106" class="cluster">
<title>cluster_ParametresAmbuPageModule_declarations</title>
<polygon fill="none" stroke="black" points="3298,-78 3298,-130 3454,-130 3454,-78 3298,-78"/>
</g>
<g id="clust108" class="cluster">
<title>cluster_ParametresAmbuPageModule_imports</title>
<polygon fill="none" stroke="black" points="3044,-78 3044,-130 3290,-130 3290,-78 3044,-78"/>
</g>
<g id="clust118" class="cluster">
<title>cluster_ParametresPageModule</title>
<polygon fill="none" stroke="black" stroke-dasharray="1,5" points="3470,-70 3470,-198 3826,-198 3826,-70 3470,-70"/>
</g>
<g id="clust119" class="cluster">
<title>cluster_ParametresPageModule_declarations</title>
<polygon fill="none" stroke="black" points="3696,-78 3696,-130 3818,-130 3818,-78 3696,-78"/>
</g>
<g id="clust121" class="cluster">
<title>cluster_ParametresPageModule_imports</title>
<polygon fill="none" stroke="black" points="3478,-78 3478,-130 3688,-130 3688,-78 3478,-78"/>
</g>
<g id="clust131" class="cluster">
<title>cluster_ParticulierPageModule</title>
<polygon fill="none" stroke="black" stroke-dasharray="1,5" points="3834,-70 3834,-271 4182,-271 4182,-70 3834,-70"/>
</g>
<g id="clust132" class="cluster">
<title>cluster_ParticulierPageModule_declarations</title>
<polygon fill="none" stroke="black" points="4056,-78 4056,-130 4174,-130 4174,-78 4056,-78"/>
</g>
<g id="clust134" class="cluster">
<title>cluster_ParticulierPageModule_imports</title>
<polygon fill="none" stroke="black" points="3842,-78 3842,-130 4048,-130 4048,-78 3842,-78"/>
</g>
<g id="clust135" class="cluster">
<title>cluster_ParticulierPageModule_exports</title>
<polygon fill="none" stroke="black" points="4040,-211 4040,-263 4162,-263 4162,-211 4040,-211"/>
</g>
<g id="clust144" class="cluster">
<title>cluster_ReservationPageModule</title>
<polygon fill="none" stroke="black" stroke-dasharray="1,5" points="4190,-138 4190,-263 4554,-263 4554,-138 4190,-138"/>
</g>
<g id="clust145" class="cluster">
<title>cluster_ReservationPageModule_declarations</title>
<polygon fill="none" stroke="black" points="4420,-146 4420,-198 4546,-198 4546,-146 4420,-146"/>
</g>
<g id="clust147" class="cluster">
<title>cluster_ReservationPageModule_imports</title>
<polygon fill="none" stroke="black" points="4198,-146 4198,-198 4412,-198 4412,-146 4198,-146"/>
</g>
<!-- AmbulancePage -->
<g id="node1" class="node">
<title>AmbulancePage</title>
<polygon fill="#ffffb3" stroke="black" points="351.74,-122 244.26,-122 244.26,-86 351.74,-86 351.74,-122"/>
<text text-anchor="middle" x="298" y="-99.8" font-family="Times,serif" font-size="14.00">AmbulancePage</text>
</g>
<!-- AmbulancePageModule -->
<g id="node2" class="node">
<title>AmbulancePageModule</title>
<polygon fill="#8dd3c7" stroke="black" points="278.79,-190 275.79,-194 254.79,-194 251.79,-190 127.21,-190 127.21,-154 278.79,-154 278.79,-190"/>
<text text-anchor="middle" x="203" y="-167.8" font-family="Times,serif" font-size="14.00">AmbulancePageModule</text>
</g>
<!-- AmbulancePage&#45;&gt;AmbulancePageModule -->
<g id="edge1" class="edge">
<title>AmbulancePage&#45;&gt;AmbulancePageModule</title>
<path fill="none" stroke="black" d="M261.39,-122.22C261.39,-122.22 261.39,-143.73 261.39,-143.73"/>
<polygon fill="black" stroke="black" points="257.89,-143.73 261.39,-153.73 264.89,-143.73 257.89,-143.73"/>
</g>
<!-- AmbulancePageRoutingModule -->
<g id="node3" class="node">
<title>AmbulancePageRoutingModule</title>
<polygon fill="#8dd3c7" stroke="black" points="220.41,-122 217.41,-126 196.41,-126 193.41,-122 23.59,-122 23.59,-86 220.41,-86 220.41,-122"/>
<text text-anchor="middle" x="122" y="-99.8" font-family="Times,serif" font-size="14.00">AmbulancePageRoutingModule</text>
</g>
<!-- AmbulancePageRoutingModule&#45;&gt;AmbulancePageModule -->
<g id="edge2" class="edge">
<title>AmbulancePageRoutingModule&#45;&gt;AmbulancePageModule</title>
<path fill="none" stroke="black" d="M173.78,-122.22C173.78,-122.22 173.78,-143.73 173.78,-143.73"/>
<polygon fill="black" stroke="black" points="170.28,-143.73 173.78,-153.73 177.28,-143.73 170.28,-143.73"/>
</g>
<!-- AppComponent -->
<g id="node4" class="node">
<title>AppComponent</title>
<polygon fill="#ffffb3" stroke="black" points="799.94,-122 694.06,-122 694.06,-86 799.94,-86 799.94,-122"/>
<text text-anchor="middle" x="747" y="-99.8" font-family="Times,serif" font-size="14.00">AppComponent</text>
</g>
<!-- AppModule -->
<g id="node5" class="node">
<title>AppModule</title>
<polygon fill="#8dd3c7" stroke="black" points="647.66,-190 644.66,-194 623.66,-194 620.66,-190 564.34,-190 564.34,-154 647.66,-154 647.66,-190"/>
<text text-anchor="middle" x="606" y="-167.8" font-family="Times,serif" font-size="14.00">AppModule</text>
</g>
<!-- AppComponent&#45;&gt;AppModule -->
<g id="edge3" class="edge">
<title>AppComponent&#45;&gt;AppModule</title>
<path fill="none" stroke="black" d="M747,-122.22C747,-142.37 747,-172 747,-172 747,-172 657.92,-172 657.92,-172"/>
<polygon fill="black" stroke="black" points="657.92,-168.5 647.92,-172 657.92,-175.5 657.92,-168.5"/>
</g>
<!-- AppComponent  -->
<g id="node7" class="node">
<title>AppComponent </title>
<polygon fill="#80b1d3" stroke="black" points="660.44,-255 551.56,-255 551.56,-219 660.44,-219 660.44,-255"/>
<text text-anchor="middle" x="606" y="-232.8" font-family="Times,serif" font-size="14.00">AppComponent </text>
</g>
<!-- AppModule&#45;&gt;AppComponent  -->
<g id="edge5" class="edge">
<title>AppModule&#45;&gt;AppComponent </title>
<path fill="none" stroke="black" stroke-dasharray="1,5" d="M606,-190.11C606,-190.11 606,-208.99 606,-208.99"/>
<polygon fill="black" stroke="black" points="602.5,-208.99 606,-218.99 609.5,-208.99 602.5,-208.99"/>
</g>
<!-- AppRoutingModule -->
<g id="node6" class="node">
<title>AppRoutingModule</title>
<polygon fill="#8dd3c7" stroke="black" points="670.27,-122 667.27,-126 646.27,-126 643.27,-122 541.73,-122 541.73,-86 670.27,-86 670.27,-122"/>
<text text-anchor="middle" x="606" y="-99.8" font-family="Times,serif" font-size="14.00">AppRoutingModule</text>
</g>
<!-- AppRoutingModule&#45;&gt;AppModule -->
<g id="edge4" class="edge">
<title>AppRoutingModule&#45;&gt;AppModule</title>
<path fill="none" stroke="black" d="M606,-122.22C606,-122.22 606,-143.73 606,-143.73"/>
<polygon fill="black" stroke="black" points="602.5,-143.73 606,-153.73 609.5,-143.73 602.5,-143.73"/>
</g>
<!-- LoginService -->
<g id="node8" class="node">
<title>LoginService</title>
<ellipse fill="#fdb462" stroke="black" cx="455" cy="-104" rx="63.12" ry="18"/>
<text text-anchor="middle" x="455" y="-99.8" font-family="Times,serif" font-size="14.00">LoginService</text>
</g>
<!-- LoginService&#45;&gt;AppModule -->
<g id="edge6" class="edge">
<title>LoginService&#45;&gt;AppModule</title>
<path fill="none" stroke="black" d="M455,-122.22C455,-142.37 455,-172 455,-172 455,-172 554.34,-172 554.34,-172"/>
<polygon fill="black" stroke="black" points="554.34,-175.5 564.34,-172 554.34,-168.5 554.34,-175.5"/>
</g>
<!-- CartePage -->
<g id="node9" class="node">
<title>CartePage</title>
<polygon fill="#ffffb3" stroke="black" points="1099.53,-122 1026.47,-122 1026.47,-86 1099.53,-86 1099.53,-122"/>
<text text-anchor="middle" x="1063" y="-99.8" font-family="Times,serif" font-size="14.00">CartePage</text>
</g>
<!-- CartePageModule -->
<g id="node10" class="node">
<title>CartePageModule</title>
<polygon fill="#8dd3c7" stroke="black" points="1043.58,-190 1040.58,-194 1019.58,-194 1016.58,-190 926.42,-190 926.42,-154 1043.58,-154 1043.58,-190"/>
<text text-anchor="middle" x="985" y="-167.8" font-family="Times,serif" font-size="14.00">CartePageModule</text>
</g>
<!-- CartePage&#45;&gt;CartePageModule -->
<g id="edge7" class="edge">
<title>CartePage&#45;&gt;CartePageModule</title>
<path fill="none" stroke="black" d="M1034.89,-122.22C1034.89,-122.22 1034.89,-143.73 1034.89,-143.73"/>
<polygon fill="black" stroke="black" points="1031.39,-143.73 1034.89,-153.73 1038.39,-143.73 1031.39,-143.73"/>
</g>
<!-- CartePageRoutingModule -->
<g id="node11" class="node">
<title>CartePageRoutingModule</title>
<polygon fill="#8dd3c7" stroke="black" points="1002.2,-122 999.2,-126 978.2,-126 975.2,-122 839.8,-122 839.8,-86 1002.2,-86 1002.2,-122"/>
<text text-anchor="middle" x="921" y="-99.8" font-family="Times,serif" font-size="14.00">CartePageRoutingModule</text>
</g>
<!-- CartePageRoutingModule&#45;&gt;CartePageModule -->
<g id="edge8" class="edge">
<title>CartePageRoutingModule&#45;&gt;CartePageModule</title>
<path fill="none" stroke="black" d="M964.28,-122.22C964.28,-122.22 964.28,-143.73 964.28,-143.73"/>
<polygon fill="black" stroke="black" points="960.78,-143.73 964.28,-153.73 967.78,-143.73 960.78,-143.73"/>
</g>
<!-- GestionReservationPage -->
<g id="node12" class="node">
<title>GestionReservationPage</title>
<polygon fill="#ffffb3" stroke="black" points="1559.63,-122 1406.37,-122 1406.37,-86 1559.63,-86 1559.63,-122"/>
<text text-anchor="middle" x="1483" y="-99.8" font-family="Times,serif" font-size="14.00">GestionReservationPage</text>
</g>
<!-- GestionReservationPageModule -->
<g id="node13" class="node">
<title>GestionReservationPageModule</title>
<polygon fill="#8dd3c7" stroke="black" points="1463.68,-190 1460.68,-194 1439.68,-194 1436.68,-190 1266.32,-190 1266.32,-154 1463.68,-154 1463.68,-190"/>
<text text-anchor="middle" x="1365" y="-167.8" font-family="Times,serif" font-size="14.00">GestionReservationPageModule</text>
</g>
<!-- GestionReservationPage&#45;&gt;GestionReservationPageModule -->
<g id="edge9" class="edge">
<title>GestionReservationPage&#45;&gt;GestionReservationPageModule</title>
<path fill="none" stroke="black" d="M1434.89,-122.22C1434.89,-122.22 1434.89,-143.73 1434.89,-143.73"/>
<polygon fill="black" stroke="black" points="1431.39,-143.73 1434.89,-153.73 1438.39,-143.73 1431.39,-143.73"/>
</g>
<!-- GestionReservationPageRoutingModule -->
<g id="node14" class="node">
<title>GestionReservationPageRoutingModule</title>
<polygon fill="#8dd3c7" stroke="black" points="1382.29,-122 1379.29,-126 1358.29,-126 1355.29,-122 1139.71,-122 1139.71,-86 1382.29,-86 1382.29,-122"/>
<text text-anchor="middle" x="1261" y="-99.8" font-family="Times,serif" font-size="14.00">GestionReservationPageRoutingModule</text>
</g>
<!-- GestionReservationPageRoutingModule&#45;&gt;GestionReservationPageModule -->
<g id="edge10" class="edge">
<title>GestionReservationPageRoutingModule&#45;&gt;GestionReservationPageModule</title>
<path fill="none" stroke="black" d="M1324.28,-122.22C1324.28,-122.22 1324.28,-143.73 1324.28,-143.73"/>
<polygon fill="black" stroke="black" points="1320.78,-143.73 1324.28,-153.73 1327.78,-143.73 1320.78,-143.73"/>
</g>
<!-- HistoAmbulancePage -->
<g id="node15" class="node">
<title>HistoAmbulancePage</title>
<polygon fill="#ffffb3" stroke="black" points="1988.08,-122 1849.92,-122 1849.92,-86 1988.08,-86 1988.08,-122"/>
<text text-anchor="middle" x="1919" y="-99.8" font-family="Times,serif" font-size="14.00">HistoAmbulancePage</text>
</g>
<!-- HistoAmbulancePageModule -->
<g id="node16" class="node">
<title>HistoAmbulancePageModule</title>
<polygon fill="#8dd3c7" stroke="black" points="1899.63,-190 1896.63,-194 1875.63,-194 1872.63,-190 1718.37,-190 1718.37,-154 1899.63,-154 1899.63,-190"/>
<text text-anchor="middle" x="1809" y="-167.8" font-family="Times,serif" font-size="14.00">HistoAmbulancePageModule</text>
</g>
<!-- HistoAmbulancePage&#45;&gt;HistoAmbulancePageModule -->
<g id="edge11" class="edge">
<title>HistoAmbulancePage&#45;&gt;HistoAmbulancePageModule</title>
<path fill="none" stroke="black" d="M1874.89,-122.22C1874.89,-122.22 1874.89,-143.73 1874.89,-143.73"/>
<polygon fill="black" stroke="black" points="1871.39,-143.73 1874.89,-153.73 1878.39,-143.73 1871.39,-143.73"/>
</g>
<!-- HistoAmbulancePageRoutingModule -->
<g id="node17" class="node">
<title>HistoAmbulancePageRoutingModule</title>
<polygon fill="#8dd3c7" stroke="black" points="1826.24,-122 1823.24,-126 1802.24,-126 1799.24,-122 1599.76,-122 1599.76,-86 1826.24,-86 1826.24,-122"/>
<text text-anchor="middle" x="1713" y="-99.8" font-family="Times,serif" font-size="14.00">HistoAmbulancePageRoutingModule</text>
</g>
<!-- HistoAmbulancePageRoutingModule&#45;&gt;HistoAmbulancePageModule -->
<g id="edge12" class="edge">
<title>HistoAmbulancePageRoutingModule&#45;&gt;HistoAmbulancePageModule</title>
<path fill="none" stroke="black" d="M1772.28,-122.22C1772.28,-122.22 1772.28,-143.73 1772.28,-143.73"/>
<polygon fill="black" stroke="black" points="1768.78,-143.73 1772.28,-153.73 1775.78,-143.73 1768.78,-143.73"/>
</g>
<!-- HistoriquePage -->
<g id="node18" class="node">
<title>HistoriquePage</title>
<polygon fill="#ffffb3" stroke="black" points="2344.31,-122 2241.69,-122 2241.69,-86 2344.31,-86 2344.31,-122"/>
<text text-anchor="middle" x="2293" y="-99.8" font-family="Times,serif" font-size="14.00">HistoriquePage</text>
</g>
<!-- HistoriquePageModule -->
<g id="node19" class="node">
<title>HistoriquePageModule</title>
<polygon fill="#8dd3c7" stroke="black" points="2273.86,-190 2270.86,-194 2249.86,-194 2246.86,-190 2128.14,-190 2128.14,-154 2273.86,-154 2273.86,-190"/>
<text text-anchor="middle" x="2201" y="-167.8" font-family="Times,serif" font-size="14.00">HistoriquePageModule</text>
</g>
<!-- HistoriquePage&#45;&gt;HistoriquePageModule -->
<g id="edge13" class="edge">
<title>HistoriquePage&#45;&gt;HistoriquePageModule</title>
<path fill="none" stroke="black" d="M2257.89,-122.22C2257.89,-122.22 2257.89,-143.73 2257.89,-143.73"/>
<polygon fill="black" stroke="black" points="2254.39,-143.73 2257.89,-153.73 2261.39,-143.73 2254.39,-143.73"/>
</g>
<!-- HistoriquePageRoutingModule -->
<g id="node20" class="node">
<title>HistoriquePageRoutingModule</title>
<polygon fill="#8dd3c7" stroke="black" points="2218.48,-122 2215.48,-126 2194.48,-126 2191.48,-122 2027.52,-122 2027.52,-86 2218.48,-86 2218.48,-122"/>
<text text-anchor="middle" x="2123" y="-99.8" font-family="Times,serif" font-size="14.00">HistoriquePageRoutingModule</text>
</g>
<!-- HistoriquePageRoutingModule&#45;&gt;HistoriquePageModule -->
<g id="edge14" class="edge">
<title>HistoriquePageRoutingModule&#45;&gt;HistoriquePageModule</title>
<path fill="none" stroke="black" d="M2173.28,-122.22C2173.28,-122.22 2173.28,-143.73 2173.28,-143.73"/>
<polygon fill="black" stroke="black" points="2169.78,-143.73 2173.28,-153.73 2176.78,-143.73 2169.78,-143.73"/>
</g>
<!-- HomePage -->
<g id="node21" class="node">
<title>HomePage</title>
<polygon fill="#ffffb3" stroke="black" points="2651.92,-122 2574.08,-122 2574.08,-86 2651.92,-86 2651.92,-122"/>
<text text-anchor="middle" x="2613" y="-99.8" font-family="Times,serif" font-size="14.00">HomePage</text>
</g>
<!-- HomePageModule -->
<g id="node22" class="node">
<title>HomePageModule</title>
<polygon fill="#8dd3c7" stroke="black" points="2593.47,-190 2590.47,-194 2569.47,-194 2566.47,-190 2472.53,-190 2472.53,-154 2593.47,-154 2593.47,-190"/>
<text text-anchor="middle" x="2533" y="-167.8" font-family="Times,serif" font-size="14.00">HomePageModule</text>
</g>
<!-- HomePage&#45;&gt;HomePageModule -->
<g id="edge15" class="edge">
<title>HomePage&#45;&gt;HomePageModule</title>
<path fill="none" stroke="black" d="M2583.89,-122.22C2583.89,-122.22 2583.89,-143.73 2583.89,-143.73"/>
<polygon fill="black" stroke="black" points="2580.39,-143.73 2583.89,-153.73 2587.39,-143.73 2580.39,-143.73"/>
</g>
<!-- HomePageRoutingModule -->
<g id="node23" class="node">
<title>HomePageRoutingModule</title>
<polygon fill="#8dd3c7" stroke="black" points="2550.09,-122 2547.09,-126 2526.09,-126 2523.09,-122 2383.91,-122 2383.91,-86 2550.09,-86 2550.09,-122"/>
<text text-anchor="middle" x="2467" y="-99.8" font-family="Times,serif" font-size="14.00">HomePageRoutingModule</text>
</g>
<!-- HomePageRoutingModule&#45;&gt;HomePageModule -->
<g id="edge16" class="edge">
<title>HomePageRoutingModule&#45;&gt;HomePageModule</title>
<path fill="none" stroke="black" d="M2511.28,-122.22C2511.28,-122.22 2511.28,-143.73 2511.28,-143.73"/>
<polygon fill="black" stroke="black" points="2507.78,-143.73 2511.28,-153.73 2514.78,-143.73 2507.78,-143.73"/>
</g>
<!-- InscriptionPage -->
<g id="node24" class="node">
<title>InscriptionPage</title>
<polygon fill="#ffffb3" stroke="black" points="3011.86,-122 2908.14,-122 2908.14,-86 3011.86,-86 3011.86,-122"/>
<text text-anchor="middle" x="2960" y="-99.8" font-family="Times,serif" font-size="14.00">InscriptionPage</text>
</g>
<!-- InscriptionPageModule -->
<g id="node25" class="node">
<title>InscriptionPageModule</title>
<polygon fill="#8dd3c7" stroke="black" points="2940.91,-190 2937.91,-194 2916.91,-194 2913.91,-190 2793.09,-190 2793.09,-154 2940.91,-154 2940.91,-190"/>
<text text-anchor="middle" x="2867" y="-167.8" font-family="Times,serif" font-size="14.00">InscriptionPageModule</text>
</g>
<!-- InscriptionPage&#45;&gt;InscriptionPageModule -->
<g id="edge17" class="edge">
<title>InscriptionPage&#45;&gt;InscriptionPageModule</title>
<path fill="none" stroke="black" d="M2924.39,-122.22C2924.39,-122.22 2924.39,-143.73 2924.39,-143.73"/>
<polygon fill="black" stroke="black" points="2920.89,-143.73 2924.39,-153.73 2927.89,-143.73 2920.89,-143.73"/>
</g>
<!-- InscriptionPageRoutingModule -->
<g id="node26" class="node">
<title>InscriptionPageRoutingModule</title>
<polygon fill="#8dd3c7" stroke="black" points="2884.03,-122 2881.03,-126 2860.03,-126 2857.03,-122 2691.97,-122 2691.97,-86 2884.03,-86 2884.03,-122"/>
<text text-anchor="middle" x="2788" y="-99.8" font-family="Times,serif" font-size="14.00">InscriptionPageRoutingModule</text>
</g>
<!-- InscriptionPageRoutingModule&#45;&gt;InscriptionPageModule -->
<g id="edge18" class="edge">
<title>InscriptionPageRoutingModule&#45;&gt;InscriptionPageModule</title>
<path fill="none" stroke="black" d="M2838.78,-122.22C2838.78,-122.22 2838.78,-143.73 2838.78,-143.73"/>
<polygon fill="black" stroke="black" points="2835.28,-143.73 2838.78,-153.73 2842.28,-143.73 2835.28,-143.73"/>
</g>
<!-- ParametresAmbuPage -->
<g id="node27" class="node">
<title>ParametresAmbuPage</title>
<polygon fill="#ffffb3" stroke="black" points="3446.4,-122 3305.6,-122 3305.6,-86 3446.4,-86 3446.4,-122"/>
<text text-anchor="middle" x="3376" y="-99.8" font-family="Times,serif" font-size="14.00">ParametresAmbuPage</text>
</g>
<!-- ParametresAmbuPageModule -->
<g id="node28" class="node">
<title>ParametresAmbuPageModule</title>
<polygon fill="#8dd3c7" stroke="black" points="3355.95,-190 3352.95,-194 3331.95,-194 3328.95,-190 3172.05,-190 3172.05,-154 3355.95,-154 3355.95,-190"/>
<text text-anchor="middle" x="3264" y="-167.8" font-family="Times,serif" font-size="14.00">ParametresAmbuPageModule</text>
</g>
<!-- ParametresAmbuPage&#45;&gt;ParametresAmbuPageModule -->
<g id="edge19" class="edge">
<title>ParametresAmbuPage&#45;&gt;ParametresAmbuPageModule</title>
<path fill="none" stroke="black" d="M3330.89,-122.22C3330.89,-122.22 3330.89,-143.73 3330.89,-143.73"/>
<polygon fill="black" stroke="black" points="3327.39,-143.73 3330.89,-153.73 3334.39,-143.73 3327.39,-143.73"/>
</g>
<!-- ParametresAmbuPageRoutingModule -->
<g id="node29" class="node">
<title>ParametresAmbuPageRoutingModule</title>
<polygon fill="#8dd3c7" stroke="black" points="3281.56,-122 3278.56,-126 3257.56,-126 3254.56,-122 3052.44,-122 3052.44,-86 3281.56,-86 3281.56,-122"/>
<text text-anchor="middle" x="3167" y="-99.8" font-family="Times,serif" font-size="14.00">ParametresAmbuPageRoutingModule</text>
</g>
<!-- ParametresAmbuPageRoutingModule&#45;&gt;ParametresAmbuPageModule -->
<g id="edge20" class="edge">
<title>ParametresAmbuPageRoutingModule&#45;&gt;ParametresAmbuPageModule</title>
<path fill="none" stroke="black" d="M3226.78,-122.22C3226.78,-122.22 3226.78,-143.73 3226.78,-143.73"/>
<polygon fill="black" stroke="black" points="3223.28,-143.73 3226.78,-153.73 3230.28,-143.73 3223.28,-143.73"/>
</g>
<!-- ParametresPage -->
<g id="node30" class="node">
<title>ParametresPage</title>
<polygon fill="#ffffb3" stroke="black" points="3809.9,-122 3704.1,-122 3704.1,-86 3809.9,-86 3809.9,-122"/>
<text text-anchor="middle" x="3757" y="-99.8" font-family="Times,serif" font-size="14.00">ParametresPage</text>
</g>
<!-- ParametresPageModule -->
<g id="node31" class="node">
<title>ParametresPageModule</title>
<polygon fill="#8dd3c7" stroke="black" points="3737.45,-190 3734.45,-194 3713.45,-194 3710.45,-190 3588.55,-190 3588.55,-154 3737.45,-154 3737.45,-190"/>
<text text-anchor="middle" x="3663" y="-167.8" font-family="Times,serif" font-size="14.00">ParametresPageModule</text>
</g>
<!-- ParametresPage&#45;&gt;ParametresPageModule -->
<g id="edge21" class="edge">
<title>ParametresPage&#45;&gt;ParametresPageModule</title>
<path fill="none" stroke="black" d="M3720.89,-122.22C3720.89,-122.22 3720.89,-143.73 3720.89,-143.73"/>
<polygon fill="black" stroke="black" points="3717.39,-143.73 3720.89,-153.73 3724.39,-143.73 3717.39,-143.73"/>
</g>
<!-- ParametresPageRoutingModule -->
<g id="node32" class="node">
<title>ParametresPageRoutingModule</title>
<polygon fill="#8dd3c7" stroke="black" points="3680.07,-122 3677.07,-126 3656.07,-126 3653.07,-122 3485.93,-122 3485.93,-86 3680.07,-86 3680.07,-122"/>
<text text-anchor="middle" x="3583" y="-99.8" font-family="Times,serif" font-size="14.00">ParametresPageRoutingModule</text>
</g>
<!-- ParametresPageRoutingModule&#45;&gt;ParametresPageModule -->
<g id="edge22" class="edge">
<title>ParametresPageRoutingModule&#45;&gt;ParametresPageModule</title>
<path fill="none" stroke="black" d="M3634.28,-122.22C3634.28,-122.22 3634.28,-143.73 3634.28,-143.73"/>
<polygon fill="black" stroke="black" points="3630.78,-143.73 3634.28,-153.73 3637.78,-143.73 3630.78,-143.73"/>
</g>
<!-- ParticulierPage -->
<g id="node33" class="node">
<title>ParticulierPage</title>
<polygon fill="#ffffb3" stroke="black" points="4165.52,-122 4064.48,-122 4064.48,-86 4165.52,-86 4165.52,-122"/>
<text text-anchor="middle" x="4115" y="-99.8" font-family="Times,serif" font-size="14.00">ParticulierPage</text>
</g>
<!-- ParticulierPageModule -->
<g id="node34" class="node">
<title>ParticulierPageModule</title>
<polygon fill="#8dd3c7" stroke="black" points="4173.57,-190 4170.57,-194 4149.57,-194 4146.57,-190 4028.43,-190 4028.43,-154 4173.57,-154 4173.57,-190"/>
<text text-anchor="middle" x="4101" y="-167.8" font-family="Times,serif" font-size="14.00">ParticulierPageModule</text>
</g>
<!-- ParticulierPage&#45;&gt;ParticulierPageModule -->
<g id="edge23" class="edge">
<title>ParticulierPage&#45;&gt;ParticulierPageModule</title>
<path fill="none" stroke="black" d="M4115,-122.22C4115,-122.22 4115,-143.73 4115,-143.73"/>
<polygon fill="black" stroke="black" points="4111.5,-143.73 4115,-153.73 4118.5,-143.73 4111.5,-143.73"/>
</g>
<!-- ParticulierPage  -->
<g id="node36" class="node">
<title>ParticulierPage </title>
<polygon fill="#fb8072" stroke="black" points="4153.52,-255 4048.48,-255 4048.48,-219 4153.52,-219 4153.52,-255"/>
<text text-anchor="middle" x="4101" y="-232.8" font-family="Times,serif" font-size="14.00">ParticulierPage </text>
</g>
<!-- ParticulierPageModule&#45;&gt;ParticulierPage  -->
<g id="edge25" class="edge">
<title>ParticulierPageModule&#45;&gt;ParticulierPage </title>
<path fill="none" stroke="black" stroke-dasharray="5,2" d="M4101,-190.11C4101,-190.11 4101,-208.99 4101,-208.99"/>
<polygon fill="black" stroke="black" points="4097.5,-208.99 4101,-218.99 4104.5,-208.99 4097.5,-208.99"/>
</g>
<!-- ReservationPageModule -->
<g id="node38" class="node">
<title>ReservationPageModule</title>
<polygon fill="#8dd3c7" stroke="black" points="4381.63,-255 4378.63,-259 4357.63,-259 4354.63,-255 4228.37,-255 4228.37,-219 4381.63,-219 4381.63,-255"/>
<text text-anchor="middle" x="4305" y="-232.8" font-family="Times,serif" font-size="14.00">ReservationPageModule</text>
</g>
<!-- ParticulierPageModule&#45;&gt;ReservationPageModule -->
<g id="edge27" class="edge">
<title>ParticulierPageModule&#45;&gt;ReservationPageModule</title>
<path fill="none" stroke="black" d="M4163.52,-190.11C4163.52,-209.34 4163.52,-237 4163.52,-237 4163.52,-237 4218.05,-237 4218.05,-237"/>
<polygon fill="black" stroke="black" points="4218.05,-240.5 4228.05,-237 4218.05,-233.5 4218.05,-240.5"/>
</g>
<!-- ParticulierPageRoutingModule -->
<g id="node35" class="node">
<title>ParticulierPageRoutingModule</title>
<polygon fill="#8dd3c7" stroke="black" points="4040.19,-122 4037.19,-126 4016.19,-126 4013.19,-122 3849.81,-122 3849.81,-86 4040.19,-86 4040.19,-122"/>
<text text-anchor="middle" x="3945" y="-99.8" font-family="Times,serif" font-size="14.00">ParticulierPageRoutingModule</text>
</g>
<!-- ParticulierPageRoutingModule&#45;&gt;ParticulierPageModule -->
<g id="edge24" class="edge">
<title>ParticulierPageRoutingModule&#45;&gt;ParticulierPageModule</title>
<path fill="none" stroke="black" d="M4034.28,-122.22C4034.28,-122.22 4034.28,-143.73 4034.28,-143.73"/>
<polygon fill="black" stroke="black" points="4030.78,-143.73 4034.28,-153.73 4037.78,-143.73 4030.78,-143.73"/>
</g>
<!-- ReservationPage -->
<g id="node37" class="node">
<title>ReservationPage</title>
<polygon fill="#ffffb3" stroke="black" points="4538.08,-190 4427.92,-190 4427.92,-154 4538.08,-154 4538.08,-190"/>
<text text-anchor="middle" x="4483" y="-167.8" font-family="Times,serif" font-size="14.00">ReservationPage</text>
</g>
<!-- ReservationPage&#45;&gt;ReservationPageModule -->
<g id="edge26" class="edge">
<title>ReservationPage&#45;&gt;ReservationPageModule</title>
<path fill="none" stroke="black" d="M4483,-190.11C4483,-209.34 4483,-237 4483,-237 4483,-237 4391.78,-237 4391.78,-237"/>
<polygon fill="black" stroke="black" points="4391.78,-233.5 4381.78,-237 4391.78,-240.5 4391.78,-233.5"/>
</g>
<!-- ReservationPageRoutingModule -->
<g id="node39" class="node">
<title>ReservationPageRoutingModule</title>
<polygon fill="#8dd3c7" stroke="black" points="4404.25,-190 4401.25,-194 4380.25,-194 4377.25,-190 4205.75,-190 4205.75,-154 4404.25,-154 4404.25,-190"/>
<text text-anchor="middle" x="4305" y="-167.8" font-family="Times,serif" font-size="14.00">ReservationPageRoutingModule</text>
</g>
<!-- ReservationPageRoutingModule&#45;&gt;ReservationPageModule -->
<g id="edge28" class="edge">
<title>ReservationPageRoutingModule&#45;&gt;ReservationPageModule</title>
<path fill="none" stroke="black" d="M4305,-190.11C4305,-190.11 4305,-208.99 4305,-208.99"/>
<polygon fill="black" stroke="black" points="4301.5,-208.99 4305,-218.99 4308.5,-208.99 4301.5,-208.99"/>
</g>
</g>
</svg>
